<svg width="46" height="40" viewBox="0 0 46 40" fill="none" xmlns="http://www.w3.org/2000/svg">
<path d="M14.7554 26.6668H38.8445C39.441 26.6668 39.9642 26.2723 40.1257 25.6994L45.4593 7.03258C45.5739 6.63015 45.4954 6.19786 45.243 5.86349C44.9902 5.53016 44.5972 5.33329 44.1777 5.33329H11.6773L10.7242 1.04444C10.5888 0.433677 10.0471 0 9.42214 0H1.33332C0.596523 0 0 0.596523 0 1.33332C0 2.07047 0.596523 2.66664 1.33332 2.66664H8.35201L13.1669 24.3331C11.7502 24.9491 10.7555 26.3591 10.7555 28.0001C10.7555 30.2056 12.5499 32.0001 14.7554 32.0001H38.8445C39.5816 32.0001 40.1778 31.4039 40.1778 30.6667C40.1778 29.9299 39.5816 29.3334 38.8445 29.3334H14.7554C14.0211 29.3334 13.4221 28.7359 13.4221 28.0001C13.4221 27.2643 14.0211 26.6668 14.7554 26.6668Z" fill="white"/>
<path d="M13.4219 36C13.4219 38.2059 15.2164 40 17.4222 40C19.6278 40 21.4222 38.2059 21.4222 36C21.4222 33.7945 19.6278 32.0001 17.4222 32.0001C15.2164 32.0001 13.4219 33.7945 13.4219 36Z" fill="white"/>
<path d="M32.1777 36C32.1777 38.2059 33.9722 40 36.1777 40C38.3836 40 40.1777 38.2059 40.1777 36C40.1777 33.7945 38.3836 32.0001 36.1777 32.0001C33.9722 32.0001 32.1777 33.7945 32.1777 36Z" fill="white"/>
</svg>
