<svg width="30" height="40" viewBox="0 0 30 40" fill="none" xmlns="http://www.w3.org/2000/svg">
<path d="M15 0C7.01215 0 0.51355 6.49859 0.51355 14.4864C0.51355 24.3995 13.4775 38.9526 14.0295 39.5673C14.5479 40.1447 15.4531 40.1437 15.9706 39.5673C16.5225 38.9526 29.4865 24.3995 29.4865 14.4864C29.4864 6.49859 22.9879 0 15 0ZM15 21.7749C10.9811 21.7749 7.7116 18.5053 7.7116 14.4864C7.7116 10.4675 10.9812 7.19797 15 7.19797C19.0189 7.19797 22.2884 10.4676 22.2884 14.4865C22.2884 18.5054 19.0189 21.7749 15 21.7749Z" fill="white"/>
</svg>
